<svg width="366" height="116" viewBox="0 0 366 116" fill="none" xmlns="http://www.w3.org/2000/svg">
<path d="M-0.0390615 66.29C-0.0377499 72.7102 1.2286 79.0673 3.68764 84.9979C6.14667 90.9286 9.7502 96.3165 14.2923 100.854C18.8344 105.391 24.2261 108.989 30.1592 111.442C36.0924 113.895 42.4507 115.155 48.8709 115.15V17.41C42.449 17.4047 36.0891 18.6653 30.1546 21.1195C24.2202 23.5737 18.8276 27.1735 14.2852 31.7131C9.74287 36.2527 6.13976 41.643 3.6819 47.576C1.22404 53.5089 -0.0403777 59.8681 -0.0390615 66.29V66.29Z" fill="black"/>
<path d="M60.3828 -4.50527e-06V97.75C66.86 97.8427 73.291 96.6469 79.302 94.2323C85.313 91.8177 90.7841 88.2323 95.3972 83.6847C100.01 79.137 103.674 73.7178 106.174 67.7419C108.674 61.7661 109.962 55.3528 109.962 48.875C109.962 42.3972 108.674 35.9839 106.174 30.0081C103.674 24.0322 100.01 18.613 95.3972 14.0653C90.7841 9.51766 85.313 5.93232 79.302 3.5177C73.291 1.10308 66.86 -0.0926563 60.3828 -4.50527e-06V-4.50527e-06Z" fill="black"/>
<path d="M190.927 16.5C193.545 16.5 195.667 14.3778 195.667 11.76C195.667 9.14217 193.545 7.02 190.927 7.02C188.31 7.02 186.188 9.14217 186.188 11.76C186.188 14.3778 188.31 16.5 190.927 16.5Z" fill="#010101"/>
<path d="M314.961 62.62V63.5H312.491V69.95H311.491V63.5H308.961V62.62H314.961Z" fill="#010101"/>
<path d="M315.812 62.62H317.232L319.342 68.82L321.432 62.62H322.842V69.95H321.902V65.63C321.902 65.48 321.902 65.23 321.902 64.88C321.902 64.53 321.902 64.17 321.902 63.77L319.802 69.95H318.802L316.692 63.77V64C316.692 64.18 316.692 64.45 316.692 64.82C316.692 65.19 316.692 65.46 316.692 65.63V69.95H315.742L315.812 62.62Z" fill="#010101"/>
<path d="M180.493 30.59V53.59H172.313V31C172.313 28.11 169.223 26.09 166.313 26.09C163.403 26.09 160.313 27.68 160.313 31V53.59H152.133V31C152.133 27.68 149.043 26.09 146.133 26.09C143.223 26.09 140.133 28.09 140.133 31V53.59H131.953V19.68H140.133V23.9C141.203 21.55 144.743 19.21 147.803 18.9C149.887 18.7451 151.969 19.2189 153.78 20.26C155.591 21.3011 157.048 22.8617 157.963 24.74C159.373 21.33 164.143 18.88 168.023 18.88C175.543 18.88 180.493 23.83 180.493 30.59Z" fill="black"/>
<path d="M186.703 53.61V19.71H194.883V53.61H186.703Z" fill="black"/>
<path d="M232.099 31.02V53.61H223.959V31.75C223.959 28.86 221.409 26.11 217.179 26.11C213.269 26.11 210.399 28.86 210.399 31.75V53.61H202.219V19.71H210.399V23.92C211.183 22.5613 212.276 21.4062 213.589 20.548C214.903 19.6898 216.399 19.1527 217.959 18.98C223.749 18.23 232.099 22.5 232.099 31.02Z" fill="black"/>
<path d="M269.96 7.55V53.55H261.78V48.45C261.01 50.1218 259.8 51.5534 258.281 52.5924C256.761 53.6313 254.988 54.2388 253.15 54.35C244.78 54.64 237.57 47.65 237.57 37C237.57 26.35 244.78 19.64 253.15 19.64C254.909 19.6544 256.634 20.1326 258.149 21.0262C259.664 21.9199 260.917 23.1975 261.78 24.73V7.55H269.96ZM261.78 37C261.78 31 258.7 26.59 253.72 26.59C248.96 26.59 245.72 31.59 245.72 37C245.72 42.41 248.93 47.41 253.72 47.41C258.66 47.41 261.74 42.99 261.74 37H261.78Z" fill="black"/>
<path d="M305.793 43.71C305.793 51.16 298.283 54.58 290.883 54.34C281.503 54.05 275.703 48.34 275.703 42.62H283.883C283.883 45.32 287.443 47.04 290.883 47.16C294.323 47.28 297.493 45.77 297.493 43.83C297.493 42.16 296.323 41.32 293.653 40.83L285.963 39.52C281.013 38.64 276.173 35.26 276.503 28.77C276.783 23.34 283.033 18.86 290.583 18.86C299.513 18.86 305.453 24.6 304.663 29.34H296.473C296.473 27.87 293.813 26.23 290.863 26.04C287.533 25.82 284.773 27.04 284.773 29.12C284.773 30.63 286.253 31.53 289.043 32.03L297.043 33.44C302.043 34.32 305.793 37.77 305.793 43.71Z" fill="black"/>
<path d="M343.628 38.9H318.508C319.318 44.46 323.078 47.11 326.938 47.16C328.276 47.1516 329.591 46.8132 330.767 46.1747C331.943 45.5363 332.943 44.6175 333.678 43.5H342.608C341.465 46.7211 339.339 49.5024 336.532 51.4524C333.724 53.4023 330.376 54.4227 326.958 54.37C318.048 54.3 310.148 47.91 310.148 36.61C310.148 25.31 318.208 18.85 326.958 18.85C335.708 18.85 343.758 25.35 343.758 36.61C343.738 37.4 343.698 38.15 343.628 38.9ZM335.098 32.68C333.418 28.34 330.438 26.12 326.938 26.07C323.438 26.02 320.438 28.32 318.768 32.68H335.098Z" fill="black"/>
<path d="M359.579 26.08V43.81C359.584 44.4851 359.85 45.1321 360.322 45.615C360.793 46.098 361.434 46.3793 362.109 46.4H365.329V53.61H359.739C357.528 53.6073 355.408 52.7278 353.844 51.1643C352.281 49.6009 351.401 47.4811 351.399 45.27V26.08H346.469V19.7H351.399V7.62H359.579V19.7H365.329V26.08H359.579Z" fill="black"/>
<path d="M161.959 86.08V108.61H153.779V88.84C153.779 84.65 152.099 80.84 146.999 80.84C142.219 80.84 140.219 84.22 140.219 88.84V108.61H132.039V62.61H140.219V78.61C141.274 77.1317 142.675 75.9342 144.3 75.122C145.925 74.3097 147.723 73.9073 149.539 73.95C155.479 73.91 161.959 78.22 161.959 86.08Z" fill="black"/>
<path d="M200.852 93.9H175.732C176.542 99.46 180.302 102.11 184.162 102.16C185.499 102.152 186.815 101.813 187.99 101.175C189.166 100.536 190.166 99.6176 190.902 98.5H199.832C198.687 101.724 196.558 104.508 193.747 106.458C190.935 108.408 187.583 109.427 184.162 109.37C175.252 109.3 167.352 102.91 167.352 91.61C167.352 80.31 175.432 73.85 184.162 73.85C192.892 73.85 200.962 80.35 200.962 91.61C200.966 92.3748 200.929 93.1392 200.852 93.9V93.9ZM192.322 87.68C190.652 83.34 187.662 81.12 184.162 81.07C180.662 81.02 177.662 83.32 175.992 87.68H192.322Z" fill="black"/>
<path d="M234.52 83.42V108.54H226.34V103.45C225.672 105.199 224.484 106.702 222.935 107.755C221.387 108.808 219.553 109.361 217.68 109.34C209.39 109.61 205.07 103.58 205.07 98.14C205.07 91.23 210.82 86.93 217.76 86.93H222.88C224.94 86.93 226.42 85.74 226.33 84.24C226.17 81.7 224.07 80.38 220.6 80.38C219.542 80.3706 218.501 80.653 217.593 81.1964C216.684 81.7397 215.943 82.5229 215.45 83.46H207.25C208.77 76.46 214.83 73.83 220.6 73.83C226.64 73.83 234.52 76.81 234.52 83.42ZM226.34 92.22C225.142 92.6744 223.872 92.9081 222.59 92.91H219.11C216.96 92.91 213.63 93.55 213.25 97.06C212.94 99.92 215.25 102.51 219.11 102.51C222.72 102.51 226.34 99.92 226.34 97.03V92.22Z" fill="black"/>
<path d="M241.531 108.61V62.61H249.721V108.61H241.531Z" fill="black"/>
<path d="M267.659 81.08V98.81C267.664 99.4834 267.929 100.129 268.398 100.612C268.868 101.094 269.506 101.377 270.179 101.4H273.409V108.61H267.809C265.6 108.605 263.482 107.724 261.921 106.161C260.36 104.598 259.482 102.479 259.479 100.27V81.08H254.539V74.7H259.479V62.62H267.659V74.7H273.409V81.08H267.659Z" fill="black"/>
<path d="M309.037 86.08V108.61H300.857V88.84C300.857 84.65 299.167 80.84 294.077 80.84C289.297 80.84 287.297 84.22 287.297 88.84V108.61H279.117V62.61H287.297V78.61C288.353 77.1317 289.754 75.9342 291.378 75.122C293.003 74.3097 294.801 73.9073 296.617 73.95C302.527 73.91 309.037 78.22 309.037 86.08Z" fill="black"/>
</svg>
