<svg width="1191" height="205" viewBox="0 0 1191 205" fill="none" xmlns="http://www.w3.org/2000/svg">
<g clip-path="url(#clip0_5044_1637)">
<path d="M768.801 53.583H624.039V204.926H670.101V99.6453H696.42V204.926H742.178V99.6453H768.801V204.926H814.559V99.3412C814.559 74.071 794.071 53.583 768.801 53.583Z" fill="#2B2B29"/>
<path d="M558.445 0.938965H512.383V158.863C512.383 184.302 533.007 204.926 558.445 204.926H611.089V158.863H558.445V99.6449H611.089V53.5825H558.445V0.938965Z" fill="#2B2B29"/>
<path d="M203.765 0.938965H157.703V158.863C157.703 184.302 178.327 204.926 203.765 204.926H256.409V158.863H203.765V99.6449H256.409V53.5825H203.765V0.938965Z" fill="#2B2B29"/>
<path d="M1004.95 0.938965H958.887V158.863C958.887 184.302 979.511 204.926 1004.95 204.926H1057.59V158.863H1004.95V99.6449H1057.59V53.5825H1004.95V0.938965Z" fill="#2B2B29"/>
<path d="M899.873 53.583H827.492V99.6453H899.873V112.808H873.555C848.116 112.808 827.492 133.432 827.492 158.87C827.492 184.309 848.116 204.932 873.555 204.932H899.873C925.312 204.932 945.935 184.309 945.935 158.87V99.6453C945.935 74.2069 925.312 53.583 899.873 53.583ZM886.711 172.02C879.443 172.02 873.548 166.124 873.548 158.857C873.548 151.59 879.437 145.695 886.711 145.695C893.984 145.695 899.873 151.584 899.873 158.857C899.873 166.131 893.978 172.02 886.711 172.02Z" fill="#2B2B29"/>
<path d="M341.729 53.583H269.348V99.6453H341.729V112.808H315.41C289.972 112.808 269.348 133.432 269.348 158.87C269.348 184.309 289.972 204.932 315.41 204.932H341.729C367.167 204.932 387.791 184.309 387.791 158.87V99.6453C387.791 74.2069 367.167 53.583 341.729 53.583ZM328.566 172.02C321.299 172.02 315.404 166.124 315.404 158.857C315.404 151.59 321.292 145.695 328.566 145.695C335.84 145.695 341.729 151.584 341.729 158.857C341.729 166.131 335.84 172.02 328.566 172.02Z" fill="#2B2B29"/>
<path d="M1142.92 145.7C1168.36 145.7 1188.99 125.076 1188.99 99.638C1188.99 74.1995 1168.36 53.5757 1142.92 53.5757H1116.61C1091.17 53.5757 1070.54 74.1995 1070.54 99.638V158.856C1070.54 184.295 1091.17 204.919 1116.61 204.919H1188.99V158.856H1116.61V145.694H1142.92V145.7ZM1129.76 86.482C1137.03 86.482 1142.92 92.3708 1142.92 99.6445C1142.92 106.918 1137.03 112.807 1129.76 112.807C1122.49 112.807 1116.6 106.918 1116.6 99.6445C1116.6 92.3708 1122.49 86.482 1129.76 86.482Z" fill="#2B2B29"/>
<path d="M400.738 99.6385V204.919H446.801V99.6385H499.444V53.5762H446.801C421.362 53.5762 400.738 74.2 400.738 99.6385Z" fill="#2B2B29"/>
<path d="M0.485343 47.0013C0.174724 49.3245 0 51.6865 0 54.0938V72.8086C0 75.2159 0.174724 77.5779 0.485343 79.9011C3.95393 105.903 26.2021 125.963 53.1548 125.963H82.256C91.3416 125.963 98.7059 133.328 98.7059 142.413C98.7059 151.499 91.3416 158.863 82.256 158.863H0V204.926H91.6069C118.553 204.926 140.808 184.865 144.276 158.863C144.587 156.54 144.762 154.178 144.762 151.771V133.056C144.762 130.649 144.587 128.287 144.276 125.963C140.808 99.9619 118.56 79.9011 91.6069 79.9011H62.5057C53.4201 79.9011 46.0558 72.5368 46.0558 63.4512C46.0558 54.3656 53.4201 47.0013 62.5057 47.0013H144.755V0.938965H53.1548C26.2021 0.938965 3.95393 20.9998 0.485343 47.0013Z" fill="#2B2B29"/>
</g>
<defs>
<clipPath id="clip0_5044_1637">
<rect width="1191" height="203.987" fill="white" transform="translate(0 0.938965)"/>
</clipPath>
</defs>
</svg>
